<?xml version="1.0" encoding="UTF-8"?>
<svg xmlns="http://www.w3.org/2000/svg" xmlns:xlink="http://www.w3.org/1999/xlink" width="100px" height="100px" viewBox="0 0 100 100" version="1.1">
<g id="surface1">
<path style=" stroke:none;fill-rule:nonzero;fill:rgb(67.45098%,67.058824%,69.411765%);fill-opacity:1;" d="M 60.074219 53.488281 L 64.726562 48.835938 L 67.050781 11.628906 L 59.1875 0 L 50 38.550781 L 56.15625 64.386719 Z M 60.074219 53.488281 "/>
<path style=" stroke:none;fill-rule:nonzero;fill:rgb(67.45098%,67.058824%,69.411765%);fill-opacity:1;" d="M 46.601562 72.066406 L 50 72.070312 L 46.601562 72.066406 L 43.84375 64.386719 L 42.011719 72.082031 L 46.601562 72.074219 Z M 46.601562 72.066406 "/>
<path style=" stroke:none;fill-rule:nonzero;fill:rgb(100%,100%,100%);fill-opacity:1;" d="M 40.582031 86.046875 C 40.582031 89.898438 37.457031 93.023438 33.605469 93.023438 C 29.75 93.023438 26.628906 89.898438 26.628906 86.046875 C 26.628906 82.195312 29.75 79.070312 33.605469 79.070312 C 37.457031 79.070312 40.582031 82.195312 40.582031 86.046875 Z M 40.582031 86.046875 "/>
<path style=" stroke:none;fill-rule:nonzero;fill:rgb(87.058824%,86.666667%,87.843137%);fill-opacity:1;" d="M 57.988281 72.082031 L 56.15625 64.386719 L 50 38.550781 L 40.8125 0 L 32.949219 11.628906 L 35.273438 48.835938 L 39.925781 53.488281 L 43.84375 64.386719 L 46.601562 72.066406 Z M 53.605469 63.953125 C 53.605469 65.878906 52.042969 67.441406 50.117188 67.441406 C 48.191406 67.441406 46.628906 65.878906 46.628906 63.953125 C 46.628906 62.027344 48.191406 60.464844 50.117188 60.464844 C 52.042969 60.464844 53.605469 62.027344 53.605469 63.953125 Z M 53.605469 63.953125 "/>
<path style=" stroke:none;fill-rule:nonzero;fill:rgb(100%,59.607843%,6.666667%);fill-opacity:1;" d="M 66.394531 72.09375 C 63.496094 72.09375 60.800781 72.980469 58.570312 74.496094 L 57.996094 72.082031 L 42.003906 72.082031 L 41.433594 74.496094 C 39.199219 72.980469 36.503906 72.09375 33.605469 72.09375 C 25.898438 72.09375 19.652344 78.339844 19.652344 86.046875 C 19.652344 93.753906 25.898438 100 33.605469 100 C 39.917969 100 45.25 95.804688 46.972656 90.050781 L 46.976562 90.066406 L 50 81.597656 L 53.019531 90.066406 L 53.027344 90.050781 C 54.75 95.804688 60.082031 100 66.394531 100 C 74.101562 100 80.347656 93.753906 80.347656 86.046875 C 80.347656 78.339844 74.101562 72.09375 66.394531 72.09375 Z M 33.605469 93.023438 C 29.75 93.023438 26.628906 89.898438 26.628906 86.046875 C 26.628906 82.195312 29.75 79.070312 33.605469 79.070312 C 37.457031 79.070312 40.582031 82.195312 40.582031 86.046875 C 40.582031 89.898438 37.457031 93.023438 33.605469 93.023438 Z M 66.394531 93.023438 C 62.542969 93.023438 59.417969 89.898438 59.417969 86.046875 C 59.417969 82.195312 62.542969 79.070312 66.394531 79.070312 C 70.25 79.070312 73.371094 82.195312 73.371094 86.046875 C 73.371094 89.898438 70.25 93.023438 66.394531 93.023438 Z M 66.394531 93.023438 "/>
<path style=" stroke:none;fill-rule:nonzero;fill:rgb(100%,100%,100%);fill-opacity:1;" d="M 73.371094 86.046875 C 73.371094 89.898438 70.25 93.023438 66.394531 93.023438 C 62.542969 93.023438 59.417969 89.898438 59.417969 86.046875 C 59.417969 82.195312 62.542969 79.070312 66.394531 79.070312 C 70.25 79.070312 73.371094 82.195312 73.371094 86.046875 Z M 73.371094 86.046875 "/>
<path style=" stroke:none;fill-rule:nonzero;fill:rgb(100%,100%,100%);fill-opacity:1;" d="M 53.605469 63.953125 C 53.605469 65.878906 52.042969 67.441406 50.117188 67.441406 C 48.191406 67.441406 46.628906 65.878906 46.628906 63.953125 C 46.628906 62.027344 48.191406 60.464844 50.117188 60.464844 C 52.042969 60.464844 53.605469 62.027344 53.605469 63.953125 Z M 53.605469 63.953125 "/>
</g>
</svg>
